Sons of Ram (2012)

 
http://www.shotpix.com/images/60875924038265986780.jpg



[B]INFO[/B]
 
http://www.imdb.com/title/tt2317103/

[CODE]Format : AVI
Format/Info : Audio Video Interleave
File size : 612 MiB
Duration : 1h 25mn
Overall bit rate : 999 Kbps

Codec ID : XVID
Codec ID/Hint : XviD
Duration : 1h 25mn
Bit rate : 862 Kbps
Width : 688 pixels
Height : 352 pixels
Display aspect ratio : 1.955
Frame rate : 29.970 fps
Color space : YUV
Chroma subsampling : 4:2:0
Bit depth : 8 bits
Scan type : Progressive
Compression mode : Lossy
Bits/(Pixel*Frame) : 0.119
Stream size : 528 MiB (86%)
Writing library : XviD 1.2.1 (UTC 2008-12-04)

Format : AC-3
Format/Info : Audio Coding 3
Mode extension : CM (complete main)
Format settings, Endianness : Big
Codec ID : 2000
Duration : 1h 25mn
Bit rate mode : Constant
Bit rate : 128 Kbps
Channel(s) : 2 channels
Channel positions : Front: L R
Sampling rate : 48.0 KHz
Bit depth : 16 bits
Compression mode : Lossy
Stream size : 78.4 MiB (13%)
Alignment : Aligned on interleaves
Interleave, duration : 64 ms (1.92 video frames)
Interleave, preload duration : 192 ms[/CODE]






[B]SCREEN SHOTS[/B]
 
http://www.shotpix.com/images/21806359679247168453.png
 
http://www.shotpix.com/images/79945242716176700842.png
 
http://www.shotpix.com/images/86882434257806318397.png
 
http://www.shotpix.com/images/46735441496694426445.png
 
http://www.shotpix.com/images/83660861235012844553.png
 
http://www.shotpix.com/images/14844983293080530749.png